<svg xmlns="http://www.w3.org/2000/svg" viewBox="0 0 64 64"><g id="Layer_82" data-name="Layer 82"><path d="M12.14,28.52a1.51,1.51,0,0,0,1.92.84l9.49-3.63a1.5,1.5,0,0,0-1.07-2.8l-6.41,2.45c7-14.79,28.85-12.93,33.16,3a1.5,1.5,0,0,0,2.9-.78c-5-18.42-30.2-20.78-38.61-3.81l-2.23-5.83A1.5,1.5,0,0,0,8.49,19S12.1,28.49,12.14,28.52Z" id="id_101" style="fill: rgb(255, 255, 255);"></path><path d="M55.51,44.44,52.09,35.5a1.59,1.59,0,0,0-.45-.61,1.51,1.51,0,0,0-1.49-.25l-8.94,3.42a1.5,1.5,0,0,0,1.07,2.8l5.86-2.24c-7,14.79-28.85,12.93-33.17-3a1.5,1.5,0,0,0-1.83-1.06,1.52,1.52,0,0,0-1.07,1.84c5,18.42,30.21,20.78,38.61,3.8l2,5.29A1.5,1.5,0,0,0,55.51,44.44Z" id="id_102" style="fill: rgb(255, 255, 255);"></path></g></svg>